<?xml version="1.0" encoding="UTF-8" standalone="no"?>
<svg xmlns:svg="http://www.w3.org/2000/svg" xmlns="http://www.w3.org/2000/svg" version="1.0" width="503" height="482"> 
<g style="fill:none;stroke:black;stroke-width:2"> 
<polygon points="15,187 251,17 488,187 397,464 106,464 15,187 "/> 
<polygon points="63,203 179,166 251,64 324,166 440,203 368,301 368,424 251,387 135,424 135,301 63,203 "/> 
<polygon points="208,206 295,206 321,286 251,341 183,286 208,206 "/> 
<line x1="15" y1="187" x2="63" y2="203"/> 
<line x1="63" y1="203" x2="135" y2="301"/> 
<line x1="106" y1="464" x2="135" y2="424"/> 
<line x1="135" y1="301" x2="183" y2="286"/> 
<line x1="179" y1="166" x2="208" y2="206"/> 
<line x1="183" y1="286" x2="208" y2="206"/> 
<line x1="251" y1="17" x2="251" y2="64"/> 
<line x1="251" y1="341" x2="251" y2="387"/> 
<line x1="295" y1="206" x2="324" y2="166"/> 
<line x1="321" y1="286" x2="368" y2="301"/> 
<line x1="397" y1="464" x2="368" y2="424"/> 
<line x1="488" y1="187" x2="440" y2="203"/>
</g><g style="fill:blue;stroke:black;stroke-width:2"> 
<circle cx="251" cy="17" r="9"/> 
<circle cx="251" cy="64" r="9"/> 
<circle cx="179" cy="166" r="9"/> 
<circle cx="324" cy="166" r="9"/> 
<circle cx="15" cy="187" r="9"/> 
<circle cx="488" cy="187" r="9"/> 
<circle cx="63" cy="203" r="9"/> 
<circle cx="440" cy="203" r="9"/> 
<circle cx="208" cy="206" r="9"/> 
<circle cx="295" cy="206" r="9"/> 
<circle cx="183" cy="286" r="9"/> 
<circle cx="321" cy="286" r="9"/> 
<circle cx="135" cy="301" r="9"/> 
<circle cx="368" cy="301" r="9"/> 
<circle cx="251" cy="341" r="9"/> 
<circle cx="251" cy="387" r="9"/> 
<circle cx="135" cy="424" r="9"/> 
<circle cx="368" cy="424" r="9"/> 
<circle cx="106" cy="464" r="9"/> 
<circle cx="397" cy="464" r="9"/></g></svg>